<svg width="79" height="51" fill="none" xmlns="http://www.w3.org/2000/svg"><g clip-path="url('#clip0_22_88')"><path d="M24.988 9.692H0V0h38.279v8.45L14.43 51H1.214L24.988 9.692Z" fill="#656565"/><path d="M51.865 13.172h9.62v4.095c1.772-2.423 4.304-4.74 8.2-4.74 5.874 0 9.315 4.04 9.315 10.721v19.07h-9.569V26.533c0-3.234-1.519-4.957-3.895-4.957-2.377 0-4.05 1.723-4.05 4.957v15.785h-9.621V13.172ZM38.565 12.982l-4.585 8.2a6.44 6.44 0 0 1 .675-.037c3.44 0 5.874 3.016 5.874 6.625v.107c0 3.502-2.278 6.463-5.771 6.463-2.738 0-4.852-1.97-5.56-4.6l-5.073 9.075c2.654 2.595 6.315 4.198 10.535 4.198 8.757 0 15.184-6.894 15.184-15.243v-.107c0-7.037-4.552-13.023-11.28-14.681Z" fill="#2DA5DE"/></g><defs><clipPath id="clip0_22_88"><path fill="#fff" d="M0 0h79v51H0z"/></clipPath></defs></svg>