<svg width="13" height="13" fill="none" xmlns="http://www.w3.org/2000/svg"><g clip-path="url('#clip0_23_299')"><path d="M9.547.762c-.706 0-1.352.223-1.922.664-.547.423-.91.961-1.125 1.353-.214-.392-.578-.93-1.125-1.353A3.078 3.078 0 0 0 3.453.762C1.485.762 0 2.372 0 4.507c0 2.307 1.852 3.885 4.656 6.275.476.405 1.016.865 1.577 1.356a.406.406 0 0 0 .534 0c.561-.49 1.101-.95 1.577-1.357C11.148 8.392 13 6.814 13 4.507 13 2.372 11.515.762 9.547.762Z" fill="#2DA5DE"/></g><defs><clipPath id="clip0_23_299"><path fill="#fff" d="M0 0h13v13H0z"/></clipPath></defs></svg>