<svg width="26" height="23" fill="none" xmlns="http://www.w3.org/2000/svg"><path d="M19.094 0c-1.411 0-2.705.447-3.845 1.329-1.093.845-1.82 1.922-2.249 2.705-.428-.783-1.156-1.86-2.25-2.705C9.61.447 8.318 0 6.907 0 2.97 0 0 3.22 0 7.49c0 4.615 3.704 7.771 9.312 12.55.952.811 2.031 1.731 3.153 2.712a.811.811 0 0 0 1.07 0c1.122-.98 2.201-1.9 3.154-2.713C22.296 15.261 26 12.105 26 7.491 26 3.221 23.03 0 19.094 0Z" fill="#656565"/><path d="M12.665 4.217 13 4.83l.335-.613c.414-.756 1.112-1.784 2.148-2.586l-.234-.302.234.302C16.558.801 17.77.382 19.093.382c3.698 0 6.525 3.02 6.525 7.109 0 2.19-.874 4.048-2.465 5.969-1.601 1.931-3.9 3.892-6.712 6.288l.248.291-.248-.29c-.953.811-2.034 1.733-3.158 2.716a.43.43 0 0 1-.566 0A322.884 322.884 0 0 0 9.56 19.75l-.001-.001-.248.29.248-.29c-2.813-2.397-5.111-4.357-6.713-6.29C1.256 11.54.382 9.68.382 7.492.382 3.401 3.21.382 6.906.382c1.324 0 2.536.418 3.61 1.25l.235-.303-.234.302c1.036.802 1.734 1.83 2.148 2.586Z" stroke="#2DA5DE" stroke-opacity=".38" stroke-width=".765"/></svg>