<svg width="39" height="34" fill="none" xmlns="http://www.w3.org/2000/svg"><path d="M28.244 0c-2.087 0-4 .661-5.687 1.966-1.617 1.25-2.693 2.843-3.327 4.001-.634-1.158-1.71-2.75-3.327-4.001C14.216.66 12.303 0 10.216 0 4.392 0 0 4.764 0 11.08c0 6.826 5.48 11.495 13.774 18.564 1.409 1.2 3.005 2.56 4.665 4.012a1.2 1.2 0 0 0 1.582 0 475.043 475.043 0 0 1 4.666-4.013C32.98 22.575 38.46 17.906 38.46 11.081 38.46 4.764 34.068 0 28.244 0Z" fill="#656565"/><path d="m18.734 6.239.496.906.496-.906c.613-1.12 1.644-2.64 3.177-3.826 1.59-1.23 3.382-1.847 5.341-1.847 5.47 0 9.65 4.466 9.65 10.515 0 3.238-1.292 5.988-3.646 8.829-2.368 2.858-5.768 5.757-9.928 9.303l.367.43-.367-.43c-1.41 1.2-3.008 2.563-4.671 4.017a.635.635 0 0 1-.837 0c-1.663-1.453-3.261-2.815-4.67-4.015v-.002c-4.161-3.545-7.561-6.445-9.93-9.303C1.858 17.07.566 14.32.566 11.08c0-6.048 4.18-10.514 9.65-10.514 1.959 0 3.751.618 5.34 1.847l.337-.434-.336.434C17.09 3.6 18.122 5.12 18.734 6.24Z" stroke="#2DA5DE" stroke-opacity=".38" stroke-width="1.131"/></svg>